ISO-10303-21;
HEADER;
FILE_DESCRIPTION(('no description'),'unknown implementation level');
FILE_NAME('solidm8ktVtEc38XrCuqpK2y4x7dknGc_1.STP','  ',('CIMSOURCE GmbH'),('CADClick - KiM GmbH - www.kimweb.de'),'unknown preprocess','ACIS','unknown authorization');
FILE_SCHEMA(('automotive_design'));
ENDSEC;
DATA;
#1=MECHANICAL_DESIGN_GEOMETRIC_PRESENTATION_REPRESENTATION(' ',(#14,#15,#16,#17,#18,#19,#20,#21,#22,#23,#24,#25,#26,#27,#28,#29,#30,#31,#32,#33,#34,#35,#36,#37,#38,#39,#40,#41,#42,#43,#44,#45,#46,#47,#48,#49,#50,#51,#52,#53,#54,#55,#56,#57,#58,#59,#60,#61,#62,#63,#64,#65,#66,#67,#68,#69,#70,#71,#72,#73,#74,#75,#76,#77,#78,#79),#10);
#2=PRODUCT_DEFINITION_CONTEXT('',#80,'design');
#3=APPLICATION_PROTOCOL_DEFINITION('INTERNATIONAL STANDARD','automotive_design',1994,#80);
#4=PRODUCT_CATEGORY_RELATIONSHIP('NONE','NONE',#81,#82);
#5=SHAPE_DEFINITION_REPRESENTATION(#83,#84);
#6=PRODUCT_DEFINITION_CONTEXT('',#85,'design');
#7=APPLICATION_PROTOCOL_DEFINITION('INTERNATIONAL STANDARD','automotive_design',1994,#85);
#8=PRODUCT_CATEGORY_RELATIONSHIP('NONE','NONE',#86,#87);
#9=SHAPE_DEFINITION_REPRESENTATION(#88,#89);
#10= (GEOMETRIC_REPRESENTATION_CONTEXT(3)GLOBAL_UNCERTAINTY_ASSIGNED_CONTEXT((#92))GLOBAL_UNIT_ASSIGNED_CONTEXT((#94,#95,#96))REPRESENTATION_CONTEXT('NONE','WORKSPACE'));
#14=STYLED_ITEM('',(#98),#99);
#15=STYLED_ITEM('',(#100),#101);
#16=STYLED_ITEM('',(#102),#103);
#17=STYLED_ITEM('',(#104),#105);
#18=STYLED_ITEM('',(#106),#107);
#19=STYLED_ITEM('',(#108),#109);
#20=STYLED_ITEM('',(#110),#111);
#21=STYLED_ITEM('',(#112),#113);
#22=STYLED_ITEM('',(#114),#115);
#23=STYLED_ITEM('',(#116),#117);
#24=STYLED_ITEM('',(#118),#119);
#25=STYLED_ITEM('',(#120),#121);
#26=STYLED_ITEM('',(#122),#123);
#27=STYLED_ITEM('',(#124),#125);
#28=STYLED_ITEM('',(#126),#127);
#29=STYLED_ITEM('',(#128),#129);
#30=STYLED_ITEM('',(#130),#131);
#31=STYLED_ITEM('',(#132),#133);
#32=STYLED_ITEM('',(#134),#135);
#33=STYLED_ITEM('',(#136),#137);
#34=STYLED_ITEM('',(#138),#139);
#35=STYLED_ITEM('',(#140),#141);
#36=STYLED_ITEM('',(#142),#143);
#37=STYLED_ITEM('',(#144),#145);
#38=STYLED_ITEM('',(#146),#147);
#39=STYLED_ITEM('',(#148),#149);
#40=STYLED_ITEM('',(#150),#151);
#41=STYLED_ITEM('',(#152),#153);
#42=STYLED_ITEM('',(#154),#155);
#43=STYLED_ITEM('',(#156),#157);
#44=STYLED_ITEM('',(#158),#159);
#45=STYLED_ITEM('',(#160),#161);
#46=STYLED_ITEM('',(#162),#163);
#47=STYLED_ITEM('',(#164),#165);
#48=STYLED_ITEM('',(#166),#167);
#49=STYLED_ITEM('',(#168),#169);
#50=STYLED_ITEM('',(#170),#171);
#51=STYLED_ITEM('',(#172),#173);
#52=STYLED_ITEM('',(#174),#175);
#53=STYLED_ITEM('',(#176),#177);
#54=STYLED_ITEM('',(#178),#179);
#55=STYLED_ITEM('',(#180),#181);
#56=STYLED_ITEM('',(#182),#183);
#57=STYLED_ITEM('',(#184),#185);
#58=STYLED_ITEM('',(#186),#187);
#59=STYLED_ITEM('',(#188),#189);
#60=STYLED_ITEM('',(#190),#191);
#61=STYLED_ITEM('',(#192),#193);
#62=STYLED_ITEM('',(#194),#195);
#63=STYLED_ITEM('',(#196),#197);
#64=STYLED_ITEM('',(#198),#199);
#65=STYLED_ITEM('',(#200),#201);
#66=STYLED_ITEM('',(#202),#203);
#67=STYLED_ITEM('',(#204),#205);
#68=STYLED_ITEM('',(#206),#207);
#69=STYLED_ITEM('',(#208),#209);
#70=STYLED_ITEM('',(#210),#211);
#71=STYLED_ITEM('',(#212),#213);
#72=STYLED_ITEM('',(#214),#215);
#73=STYLED_ITEM('',(#216),#217);
#74=STYLED_ITEM('',(#218),#219);
#75=STYLED_ITEM('',(#220),#221);
#76=STYLED_ITEM('',(#222),#223);
#77=STYLED_ITEM('',(#224),#225);
#78=STYLED_ITEM('',(#226),#227);
#79=STYLED_ITEM('',(#228),#229);
#80=APPLICATION_CONTEXT(' ');
#81=PRODUCT_CATEGORY('part','NONE');
#82=PRODUCT_RELATED_PRODUCT_CATEGORY('detail',' ',(#230));
#83=PRODUCT_DEFINITION_SHAPE('NONE','NONE',#231);
#84=ADVANCED_BREP_SHAPE_REPRESENTATION('1',(#147,#232),#10);
#85=APPLICATION_CONTEXT(' ');
#86=PRODUCT_CATEGORY('part','NONE');
#87=PRODUCT_RELATED_PRODUCT_CATEGORY('detail',' ',(#233));
#88=PRODUCT_DEFINITION_SHAPE('NONE','NONE',#234);
#89=ADVANCED_BREP_SHAPE_REPRESENTATION('2',(#119,#235),#10);
#92=UNCERTAINTY_MEASURE_WITH_UNIT(LENGTH_MEASURE(1.0E-006),#94,'','');
#94= (CONVERSION_BASED_UNIT('MILLIMETRE',#238)LENGTH_UNIT()NAMED_UNIT(#241));
#95= (NAMED_UNIT(#243)PLANE_ANGLE_UNIT()SI_UNIT($,.RADIAN.));
#96= (NAMED_UNIT(#243)SOLID_ANGLE_UNIT()SI_UNIT($,.STERADIAN.));
#98=PRESENTATION_STYLE_ASSIGNMENT((#249));
#99=VERTEX_POINT('',#250);
#100=PRESENTATION_STYLE_ASSIGNMENT((#251));
#101=VERTEX_POINT('',#252);
#102=PRESENTATION_STYLE_ASSIGNMENT((#253));
#103=VERTEX_POINT('',#254);
#104=PRESENTATION_STYLE_ASSIGNMENT((#255));
#105=ADVANCED_FACE('',(#256),#257,.T.);
#106=PRESENTATION_STYLE_ASSIGNMENT((#258));
#107=VERTEX_POINT('',#259);
#108=PRESENTATION_STYLE_ASSIGNMENT((#260));
#109=EDGE_CURVE('',#177,#111,#261,.T.);
#110=PRESENTATION_STYLE_ASSIGNMENT((#262));
#111=VERTEX_POINT('',#263);
#112=PRESENTATION_STYLE_ASSIGNMENT((#264));
#113=VERTEX_POINT('',#265);
#114=PRESENTATION_STYLE_ASSIGNMENT((#266));
#115=EDGE_CURVE('',#159,#161,#267,.T.);
#116=PRESENTATION_STYLE_ASSIGNMENT((#268));
#117=ADVANCED_FACE('',(#269),#270,.T.);
#118=PRESENTATION_STYLE_ASSIGNMENT((#271));
#119=MANIFOLD_SOLID_BREP('2',#272);
#120=PRESENTATION_STYLE_ASSIGNMENT((#273));
#121=ADVANCED_FACE('',(#274),#275,.T.);
#122=PRESENTATION_STYLE_ASSIGNMENT((#276));
#123=EDGE_CURVE('',#161,#113,#277,.T.);
#124=PRESENTATION_STYLE_ASSIGNMENT((#278));
#125=ADVANCED_FACE('',(#279),#280,.T.);
#126=PRESENTATION_STYLE_ASSIGNMENT((#281));
#127=EDGE_CURVE('',#171,#177,#282,.T.);
#128=PRESENTATION_STYLE_ASSIGNMENT((#283));
#129=ADVANCED_FACE('',(#284),#285,.T.);
#130=PRESENTATION_STYLE_ASSIGNMENT((#286));
#131=ADVANCED_FACE('',(#287),#288,.T.);
#132=PRESENTATION_STYLE_ASSIGNMENT((#289));
#133=EDGE_CURVE('',#177,#171,#290,.T.);
#134=PRESENTATION_STYLE_ASSIGNMENT((#291));
#135=EDGE_CURVE('',#139,#201,#292,.T.);
#136=PRESENTATION_STYLE_ASSIGNMENT((#293));
#137=EDGE_CURVE('',#163,#111,#294,.T.);
#138=PRESENTATION_STYLE_ASSIGNMENT((#295));
#139=VERTEX_POINT('',#296);
#140=PRESENTATION_STYLE_ASSIGNMENT((#297));
#141=EDGE_CURVE('',#111,#163,#298,.T.);
#142=PRESENTATION_STYLE_ASSIGNMENT((#299));
#143=ADVANCED_FACE('',(#300),#301,.T.);
#144=PRESENTATION_STYLE_ASSIGNMENT((#302));
#145=VERTEX_POINT('',#303);
#146=PRESENTATION_STYLE_ASSIGNMENT((#304));
#147=MANIFOLD_SOLID_BREP('1',#305);
#148=PRESENTATION_STYLE_ASSIGNMENT((#306));
#149=ADVANCED_FACE('',(#307),#308,.T.);
#150=PRESENTATION_STYLE_ASSIGNMENT((#309));
#151=EDGE_CURVE('',#101,#201,#310,.T.);
#152=PRESENTATION_STYLE_ASSIGNMENT((#311));
#153=EDGE_CURVE('',#161,#159,#312,.T.);
#154=PRESENTATION_STYLE_ASSIGNMENT((#313));
#155=ADVANCED_FACE('',(#314),#315,.T.);
#156=PRESENTATION_STYLE_ASSIGNMENT((#316));
#157=EDGE_CURVE('',#201,#101,#317,.T.);
#158=PRESENTATION_STYLE_ASSIGNMENT((#318));
#159=VERTEX_POINT('',#319);
#160=PRESENTATION_STYLE_ASSIGNMENT((#320));
#161=VERTEX_POINT('',#321);
#162=PRESENTATION_STYLE_ASSIGNMENT((#322));
#163=VERTEX_POINT('',#323);
#164=PRESENTATION_STYLE_ASSIGNMENT((#324));
#165=ADVANCED_FACE('',(#325),#326,.T.);
#166=PRESENTATION_STYLE_ASSIGNMENT((#327));
#167=ADVANCED_FACE('',(#328),#329,.T.);
#168=PRESENTATION_STYLE_ASSIGNMENT((#330));
#169=ADVANCED_FACE('',(#331),#332,.T.);
#170=PRESENTATION_STYLE_ASSIGNMENT((#333));
#171=VERTEX_POINT('',#334);
#172=PRESENTATION_STYLE_ASSIGNMENT((#335));
#173=ADVANCED_FACE('',(#336),#337,.T.);
#174=PRESENTATION_STYLE_ASSIGNMENT((#338));
#175=EDGE_CURVE('',#201,#107,#339,.T.);
#176=PRESENTATION_STYLE_ASSIGNMENT((#340));
#177=VERTEX_POINT('',#341);
#178=PRESENTATION_STYLE_ASSIGNMENT((#342));
#179=VERTEX_POINT('',#343);
#180=PRESENTATION_STYLE_ASSIGNMENT((#344));
#181=ADVANCED_FACE('',(#345),#346,.T.);
#182=PRESENTATION_STYLE_ASSIGNMENT((#347));
#183=EDGE_CURVE('',#99,#103,#348,.T.);
#184=PRESENTATION_STYLE_ASSIGNMENT((#349));
#185=EDGE_CURVE('',#103,#145,#350,.T.);
#186=PRESENTATION_STYLE_ASSIGNMENT((#351));
#187=EDGE_CURVE('',#197,#113,#352,.T.);
#188=PRESENTATION_STYLE_ASSIGNMENT((#353));
#189=EDGE_CURVE('',#111,#197,#354,.T.);
#190=PRESENTATION_STYLE_ASSIGNMENT((#355));
#191=EDGE_CURVE('',#227,#107,#356,.T.);
#192=PRESENTATION_STYLE_ASSIGNMENT((#357));
#193=EDGE_CURVE('',#103,#99,#358,.T.);
#194=PRESENTATION_STYLE_ASSIGNMENT((#359));
#195=EDGE_CURVE('',#227,#101,#360,.T.);
#196=PRESENTATION_STYLE_ASSIGNMENT((#361));
#197=VERTEX_POINT('',#362);
#198=PRESENTATION_STYLE_ASSIGNMENT((#363));
#199=EDGE_CURVE('',#145,#179,#364,.T.);
#200=PRESENTATION_STYLE_ASSIGNMENT((#365));
#201=VERTEX_POINT('',#366);
#202=PRESENTATION_STYLE_ASSIGNMENT((#367));
#203=ADVANCED_FACE('',(#368),#369,.T.);
#204=PRESENTATION_STYLE_ASSIGNMENT((#370));
#205=ADVANCED_FACE('',(#371),#372,.T.);
#206=PRESENTATION_STYLE_ASSIGNMENT((#373));
#207=EDGE_CURVE('',#113,#163,#374,.T.);
#208=PRESENTATION_STYLE_ASSIGNMENT((#375));
#209=ADVANCED_FACE('',(#376),#377,.T.);
#210=PRESENTATION_STYLE_ASSIGNMENT((#378));
#211=EDGE_CURVE('',#101,#139,#379,.T.);
#212=PRESENTATION_STYLE_ASSIGNMENT((#380));
#213=EDGE_CURVE('',#197,#159,#381,.T.);
#214=PRESENTATION_STYLE_ASSIGNMENT((#382));
#215=EDGE_CURVE('',#163,#171,#383,.T.);
#216=PRESENTATION_STYLE_ASSIGNMENT((#384));
#217=EDGE_CURVE('',#113,#197,#385,.T.);
#218=PRESENTATION_STYLE_ASSIGNMENT((#386));
#219=EDGE_CURVE('',#107,#227,#387,.T.);
#220=PRESENTATION_STYLE_ASSIGNMENT((#388));
#221=EDGE_CURVE('',#179,#145,#389,.T.);
#222=PRESENTATION_STYLE_ASSIGNMENT((#390));
#223=EDGE_CURVE('',#171,#179,#391,.T.);
#224=PRESENTATION_STYLE_ASSIGNMENT((#392));
#225=EDGE_CURVE('',#145,#177,#393,.T.);
#226=PRESENTATION_STYLE_ASSIGNMENT((#394));
#227=VERTEX_POINT('',#395);
#228=PRESENTATION_STYLE_ASSIGNMENT((#396));
#229=EDGE_CURVE('',#179,#99,#397,.T.);
#230=PRODUCT('1','1','PART-1-DESC',(#398));
#231=PRODUCT_DEFINITION('NONE','NONE',#399,#2);
#232=AXIS2_PLACEMENT_3D('',#400,#401,#402);
#233=PRODUCT('2','2','PART-2-DESC',(#403));
#234=PRODUCT_DEFINITION('NONE','NONE',#404,#6);
#235=AXIS2_PLACEMENT_3D('',#405,#406,#407);
#238=LENGTH_MEASURE_WITH_UNIT(LENGTH_MEASURE(1.0),#408);
#241=DIMENSIONAL_EXPONENTS(1.0,0.0,0.0,0.0,0.0,0.0,0.0);
#243=DIMENSIONAL_EXPONENTS(0.0,0.0,0.0,0.0,0.0,0.0,0.0);
#249=POINT_STYLE(' ',#409,POSITIVE_LENGTH_MEASURE(1.0E-006),#410);
#250=CARTESIAN_POINT('',(2.64305802696275E-016,-2.15829194313172,0.0));
#251=POINT_STYLE(' ',#411,POSITIVE_LENGTH_MEASURE(1.0E-006),#412);
#252=CARTESIAN_POINT('',(-2.3815,0.0,-79.13320489));
#253=POINT_STYLE(' ',#413,POSITIVE_LENGTH_MEASURE(1.0E-006),#414);
#254=CARTESIAN_POINT('',(0.0,2.15829194313172,0.0));
#255=SURFACE_STYLE_USAGE(.BOTH.,#415);
#256=FACE_OUTER_BOUND('',#416,.T.);
#257=CYLINDRICAL_SURFACE('',#417,2.3815);
#258=POINT_STYLE(' ',#418,POSITIVE_LENGTH_MEASURE(1.0E-006),#419);
#259=CARTESIAN_POINT('',(2.3825,2.91762463798181E-016,-60.526));
#260=CURVE_STYLE('',#420,POSITIVE_LENGTH_MEASURE(1.0E-006),#421);
#261=LINE('',#422,#423);
#262=POINT_STYLE(' ',#424,POSITIVE_LENGTH_MEASURE(1.0E-006),#425);
#263=CARTESIAN_POINT('',(0.0,2.3815,-50.0103923048454));
#264=POINT_STYLE(' ',#426,POSITIVE_LENGTH_MEASURE(1.0E-006),#427);
#265=CARTESIAN_POINT('',(2.91640003162799E-016,-2.3815,-60.5251339745962));
#266=CURVE_STYLE('',#428,POSITIVE_LENGTH_MEASURE(1.0E-006),#429);
#267=CIRCLE('',#430,2.382);
#268=SURFACE_STYLE_USAGE(.BOTH.,#431);
#269=FACE_OUTER_BOUND('',#432,.T.);
#270=CONICAL_SURFACE('',#433,2.38175,0.523598775598553);
#271=SURFACE_STYLE_USAGE(.BOTH.,#434);
#272=CLOSED_SHELL('',(#165,#173,#209,#205,#129));
#273=SURFACE_STYLE_USAGE(.BOTH.,#435);
#274=FACE_OUTER_BOUND('',#436,.T.);
#275=CYLINDRICAL_SURFACE('',#437,2.3875);
#276=CURVE_STYLE('',#438,POSITIVE_LENGTH_MEASURE(1.0E-006),#439);
#277=LINE('',#440,#441);
#278=SURFACE_STYLE_USAGE(.BOTH.,#442);
#279=FACE_OUTER_BOUND('',#443,.T.);
#280=PLANE('',#444);
#281=CURVE_STYLE('',#445,POSITIVE_LENGTH_MEASURE(1.0E-006),#446);
#282=CIRCLE('',#447,2.3875);
#283=SURFACE_STYLE_USAGE(.BOTH.,#448);
#284=FACE_OUTER_BOUND('',#449,.T.);
#285=CONICAL_SURFACE('',#450,1.19075,1.22173047747314);
#286=SURFACE_STYLE_USAGE(.BOTH.,#451);
#287=FACE_OUTER_BOUND('',#452,.T.);
#288=CONICAL_SURFACE('',#453,2.3845,0.523598775598297);
#289=CURVE_STYLE('',#454,POSITIVE_LENGTH_MEASURE(1.0E-006),#455);
#290=CIRCLE('',#456,2.3875);
#291=CURVE_STYLE('',#457,POSITIVE_LENGTH_MEASURE(1.0E-006),#458);
#292=LINE('',#459,#460);
#293=CURVE_STYLE('',#461,POSITIVE_LENGTH_MEASURE(1.0E-006),#462);
#294=CIRCLE('',#463,2.3815);
#295=POINT_STYLE(' ',#464,POSITIVE_LENGTH_MEASURE(1.0E-006),#465);
#296=CARTESIAN_POINT('',(0.0,0.0,-80.0));
#297=CURVE_STYLE('',#466,POSITIVE_LENGTH_MEASURE(1.0E-006),#467);
#298=CIRCLE('',#468,2.3815);
#299=SURFACE_STYLE_USAGE(.BOTH.,#469);
#300=FACE_OUTER_BOUND('',#470,.T.);
#301=CYLINDRICAL_SURFACE('',#471,2.3875);
#302=POINT_STYLE(' ',#472,POSITIVE_LENGTH_MEASURE(1.0E-006),#473);
#303=CARTESIAN_POINT('',(0.0,2.3875,-0.396999999999998));
#304=SURFACE_STYLE_USAGE(.BOTH.,#474);
#305=CLOSED_SHELL('',(#149,#105,#131,#121,#167,#169,#181,#143,#155,#203,#117,#125));
#306=SURFACE_STYLE_USAGE(.BOTH.,#475);
#307=FACE_OUTER_BOUND('',#476,.T.);
#308=CONICAL_SURFACE('',#477,2.38175,0.523598775598553);
#309=CURVE_STYLE('',#478,POSITIVE_LENGTH_MEASURE(1.0E-006),#479);
#310=CIRCLE('',#480,2.3815);
#311=CURVE_STYLE('',#481,POSITIVE_LENGTH_MEASURE(1.0E-006),#482);
#312=CIRCLE('',#483,2.382);
#313=SURFACE_STYLE_USAGE(.BOTH.,#484);
#314=FACE_OUTER_BOUND('',#485,.T.);
#315=CONICAL_SURFACE('',#486,2.3845,0.523598775598297);
#316=CURVE_STYLE('',#487,POSITIVE_LENGTH_MEASURE(1.0E-006),#488);
#317=CIRCLE('',#489,2.3815);
#318=POINT_STYLE(' ',#490,POSITIVE_LENGTH_MEASURE(1.0E-006),#491);
#319=CARTESIAN_POINT('',(0.0,2.382,-60.526));
#320=POINT_STYLE(' ',#492,POSITIVE_LENGTH_MEASURE(1.0E-006),#493);
#321=CARTESIAN_POINT('',(2.9170123348049E-016,-2.382,-60.526));
#322=POINT_STYLE(' ',#494,POSITIVE_LENGTH_MEASURE(1.0E-006),#495);
#323=CARTESIAN_POINT('',(2.91640003162799E-016,-2.3815,-50.0103923048454));
#324=SURFACE_STYLE_USAGE(.BOTH.,#496);
#325=FACE_OUTER_BOUND('',#497,.T.);
#326=CONICAL_SURFACE('',#498,1.19075,1.22173047747314);
#327=SURFACE_STYLE_USAGE(.BOTH.,#499);
#328=FACE_OUTER_BOUND('',#500,.T.);
#329=CONICAL_SURFACE('',#501,2.27289597156586,0.523598775598301);
#330=SURFACE_STYLE_USAGE(.BOTH.,#502);
#331=FACE_OUTER_BOUND('',#503,.T.);
#332=PLANE('',#504);
#333=POINT_STYLE(' ',#505,POSITIVE_LENGTH_MEASURE(1.0E-006),#506);
#334=CARTESIAN_POINT('',(2.92374766975093E-016,-2.3875,-50.0));
#335=SURFACE_STYLE_USAGE(.BOTH.,#507);
#336=FACE_OUTER_BOUND('',#508,.T.);
#337=CONICAL_SURFACE('',#509,2.382,5.37426230833068E-005);
#338=CURVE_STYLE('',#510,POSITIVE_LENGTH_MEASURE(1.0E-006),#511);
#339=LINE('',#512,#513);
#340=POINT_STYLE(' ',#514,POSITIVE_LENGTH_MEASURE(1.0E-006),#515);
#341=CARTESIAN_POINT('',(0.0,2.3875,-50.0));
#342=POINT_STYLE(' ',#516,POSITIVE_LENGTH_MEASURE(1.0E-006),#517);
#343=CARTESIAN_POINT('',(2.92374766975093E-016,-2.3875,-0.396999999999998));
#344=SURFACE_STYLE_USAGE(.BOTH.,#518);
#345=FACE_OUTER_BOUND('',#519,.T.);
#346=CONICAL_SURFACE('',#520,2.27289597156586,0.523598775598301);
#347=CURVE_STYLE('',#521,POSITIVE_LENGTH_MEASURE(1.0E-006),#522);
#348=CIRCLE('',#523,2.15829194313172);
#349=CURVE_STYLE('',#524,POSITIVE_LENGTH_MEASURE(1.0E-006),#525);
#350=LINE('',#526,#527);
#351=CURVE_STYLE('',#528,POSITIVE_LENGTH_MEASURE(1.0E-006),#529);
#352=CIRCLE('',#530,2.3815);
#353=CURVE_STYLE('',#531,POSITIVE_LENGTH_MEASURE(1.0E-006),#532);
#354=LINE('',#533,#534);
#355=CURVE_STYLE('',#535,POSITIVE_LENGTH_MEASURE(1.0E-006),#536);
#356=CIRCLE('',#537,2.3825);
#357=CURVE_STYLE('',#538,POSITIVE_LENGTH_MEASURE(1.0E-006),#539);
#358=CIRCLE('',#540,2.15829194313172);
#359=CURVE_STYLE('',#541,POSITIVE_LENGTH_MEASURE(1.0E-006),#542);
#360=LINE('',#543,#544);
#361=POINT_STYLE(' ',#545,POSITIVE_LENGTH_MEASURE(1.0E-006),#546);
#362=CARTESIAN_POINT('',(0.0,2.3815,-60.5251339745962));
#363=CURVE_STYLE('',#547,POSITIVE_LENGTH_MEASURE(1.0E-006),#548);
#364=CIRCLE('',#549,2.3875);
#365=POINT_STYLE(' ',#550,POSITIVE_LENGTH_MEASURE(1.0E-006),#551);
#366=CARTESIAN_POINT('',(2.3815,2.91640003162799E-016,-79.13320489));
#367=SURFACE_STYLE_USAGE(.BOTH.,#552);
#368=FACE_OUTER_BOUND('',#553,.T.);
#369=CYLINDRICAL_SURFACE('',#554,2.3815);
#370=SURFACE_STYLE_USAGE(.BOTH.,#555);
#371=FACE_OUTER_BOUND('',#556,.T.);
#372=CONICAL_SURFACE('',#557,2.382,5.37426230833068E-005);
#373=CURVE_STYLE('',#558,POSITIVE_LENGTH_MEASURE(1.0E-006),#559);
#374=LINE('',#560,#561);
#375=SURFACE_STYLE_USAGE(.BOTH.,#562);
#376=FACE_OUTER_BOUND('',#563,.T.);
#377=PLANE('',#564);
#378=CURVE_STYLE('',#565,POSITIVE_LENGTH_MEASURE(1.0E-006),#566);
#379=LINE('',#567,#568);
#380=CURVE_STYLE('',#569,POSITIVE_LENGTH_MEASURE(1.0E-006),#570);
#381=LINE('',#571,#572);
#382=CURVE_STYLE('',#573,POSITIVE_LENGTH_MEASURE(1.0E-006),#574);
#383=LINE('',#575,#576);
#384=CURVE_STYLE('',#577,POSITIVE_LENGTH_MEASURE(1.0E-006),#578);
#385=CIRCLE('',#579,2.3815);
#386=CURVE_STYLE('',#580,POSITIVE_LENGTH_MEASURE(1.0E-006),#581);
#387=CIRCLE('',#582,2.3825);
#388=CURVE_STYLE('',#583,POSITIVE_LENGTH_MEASURE(1.0E-006),#584);
#389=CIRCLE('',#585,2.3875);
#390=CURVE_STYLE('',#586,POSITIVE_LENGTH_MEASURE(1.0E-006),#587);
#391=LINE('',#588,#589);
#392=CURVE_STYLE('',#590,POSITIVE_LENGTH_MEASURE(1.0E-006),#591);
#393=LINE('',#592,#593);
#394=POINT_STYLE(' ',#594,POSITIVE_LENGTH_MEASURE(1.0E-006),#595);
#395=CARTESIAN_POINT('',(-2.3825,0.0,-60.526));
#396=CURVE_STYLE('',#596,POSITIVE_LENGTH_MEASURE(1.0E-006),#597);
#397=LINE('',#598,#599);
#398=PRODUCT_CONTEXT('',#80,'mechanical');
#399=PRODUCT_DEFINITION_FORMATION_WITH_SPECIFIED_SOURCE(' ','NONE',#230,.NOT_KNOWN.);
#400=CARTESIAN_POINT('',(0.0,0.0,0.0));
#401=DIRECTION('',(0.0,0.0,1.0));
#402=DIRECTION('',(1.0,0.0,0.0));
#403=PRODUCT_CONTEXT('',#85,'mechanical');
#404=PRODUCT_DEFINITION_FORMATION_WITH_SPECIFIED_SOURCE(' ','NONE',#233,.NOT_KNOWN.);
#405=CARTESIAN_POINT('',(0.0,0.0,0.0));
#406=DIRECTION('',(0.0,0.0,1.0));
#407=DIRECTION('',(1.0,0.0,0.0));
#408= (NAMED_UNIT(#241)LENGTH_UNIT()SI_UNIT(.MILLI.,.METRE.));
#409=PRE_DEFINED_MARKER('');
#410=COLOUR_RGB('',0.498039215803146,0.498039215803146,0.498039215803146);
#411=PRE_DEFINED_MARKER('');
#412=COLOUR_RGB('',0.800000011920929,0.800000011920929,0.800000011920929);
#413=PRE_DEFINED_MARKER('');
#414=COLOUR_RGB('',0.498039215803146,0.498039215803146,0.498039215803146);
#415=SURFACE_SIDE_STYLE('',(#601));
#416=EDGE_LOOP('',(#602,#603,#604,#605));
#417=AXIS2_PLACEMENT_3D('',#606,#607,#608);
#418=PRE_DEFINED_MARKER('');
#419=COLOUR_RGB('',0.800000011920929,0.800000011920929,0.800000011920929);
#420=DRAUGHTING_PRE_DEFINED_CURVE_FONT('continuous');
#421=COLOUR_RGB('',0.498039215803146,0.498039215803146,0.498039215803146);
#422=CARTESIAN_POINT('',(-2.92007385068946E-016,2.3845,-50.0051961524227));
#423=VECTOR('',#609,1.0);
#424=PRE_DEFINED_MARKER('');
#425=COLOUR_RGB('',0.498039215803146,0.498039215803146,0.498039215803146);
#426=PRE_DEFINED_MARKER('');
#427=COLOUR_RGB('',0.498039215803146,0.498039215803146,0.498039215803146);
#428=DRAUGHTING_PRE_DEFINED_CURVE_FONT('continuous');
#429=COLOUR_RGB('',0.498039215803146,0.498039215803146,0.498039215803146);
#430=AXIS2_PLACEMENT_3D('',#610,#611,#612);
#431=SURFACE_SIDE_STYLE('',(#613));
#432=EDGE_LOOP('',(#614,#615,#616,#617));
#433=AXIS2_PLACEMENT_3D('',#618,#619,#620);
#434=SURFACE_SIDE_STYLE('',(#621));
#435=SURFACE_SIDE_STYLE('',(#622));
#436=EDGE_LOOP('',(#623,#624,#625,#626));
#437=AXIS2_PLACEMENT_3D('',#627,#628,#629);
#438=DRAUGHTING_PRE_DEFINED_CURVE_FONT('continuous');
#439=COLOUR_RGB('',0.498039215803146,0.498039215803146,0.498039215803146);
#440=CARTESIAN_POINT('',(2.91670618321645E-016,-2.38175,-60.5255669872981));
#441=VECTOR('',#630,1.0);
#442=SURFACE_SIDE_STYLE('',(#631));
#443=EDGE_LOOP('',(#632,#633));
#444=AXIS2_PLACEMENT_3D('',#634,#635,#636);
#445=DRAUGHTING_PRE_DEFINED_CURVE_FONT('continuous');
#446=COLOUR_RGB('',0.498039215803146,0.498039215803146,0.498039215803146);
#447=AXIS2_PLACEMENT_3D('',#637,#638,#639);
#448=SURFACE_SIDE_STYLE('',(#640));
#449=EDGE_LOOP('',(#641,#642,#643));
#450=AXIS2_PLACEMENT_3D('',#644,#645,#646);
#451=SURFACE_SIDE_STYLE('',(#647));
#452=EDGE_LOOP('',(#648,#649,#650,#651));
#453=AXIS2_PLACEMENT_3D('',#652,#653,#654);
#454=DRAUGHTING_PRE_DEFINED_CURVE_FONT('continuous');
#455=COLOUR_RGB('',0.498039215803146,0.498039215803146,0.498039215803146);
#456=AXIS2_PLACEMENT_3D('',#655,#656,#657);
#457=DRAUGHTING_PRE_DEFINED_CURVE_FONT('continuous');
#458=COLOUR_RGB('',0.800000011920929,0.800000011920929,0.800000011920929);
#459=CARTESIAN_POINT('',(1.19075,1.458200015814E-016,-79.566602445));
#460=VECTOR('',#658,1.0);
#461=DRAUGHTING_PRE_DEFINED_CURVE_FONT('continuous');
#462=COLOUR_RGB('',0.498039215803146,0.498039215803146,0.498039215803146);
#463=AXIS2_PLACEMENT_3D('',#659,#660,#661);
#464=PRE_DEFINED_MARKER('');
#465=COLOUR_RGB('',0.800000011920929,0.800000011920929,0.800000011920929);
#466=DRAUGHTING_PRE_DEFINED_CURVE_FONT('continuous');
#467=COLOUR_RGB('',0.498039215803146,0.498039215803146,0.498039215803146);
#468=AXIS2_PLACEMENT_3D('',#662,#663,#664);
#469=SURFACE_SIDE_STYLE('',(#665));
#470=EDGE_LOOP('',(#666,#667,#668,#669));
#471=AXIS2_PLACEMENT_3D('',#670,#671,#672);
#472=PRE_DEFINED_MARKER('');
#473=COLOUR_RGB('',0.498039215803146,0.498039215803146,0.498039215803146);
#474=SURFACE_SIDE_STYLE('',(#673));
#475=SURFACE_SIDE_STYLE('',(#674));
#476=EDGE_LOOP('',(#675,#676,#677,#678));
#477=AXIS2_PLACEMENT_3D('',#679,#680,#681);
#478=DRAUGHTING_PRE_DEFINED_CURVE_FONT('continuous');
#479=COLOUR_RGB('',0.800000011920929,0.800000011920929,0.800000011920929);
#480=AXIS2_PLACEMENT_3D('',#682,#683,#684);
#481=DRAUGHTING_PRE_DEFINED_CURVE_FONT('continuous');
#482=COLOUR_RGB('',0.498039215803146,0.498039215803146,0.498039215803146);
#483=AXIS2_PLACEMENT_3D('',#685,#686,#687);
#484=SURFACE_SIDE_STYLE('',(#688));
#485=EDGE_LOOP('',(#689,#690,#691,#692));
#486=AXIS2_PLACEMENT_3D('',#693,#694,#695);
#487=DRAUGHTING_PRE_DEFINED_CURVE_FONT('continuous');
#488=COLOUR_RGB('',0.800000011920929,0.800000011920929,0.800000011920929);
#489=AXIS2_PLACEMENT_3D('',#696,#697,#698);
#490=PRE_DEFINED_MARKER('');
#491=COLOUR_RGB('',0.498039215803146,0.498039215803146,0.498039215803146);
#492=PRE_DEFINED_MARKER('');
#493=COLOUR_RGB('',0.498039215803146,0.498039215803146,0.498039215803146);
#494=PRE_DEFINED_MARKER('');
#495=COLOUR_RGB('',0.498039215803146,0.498039215803146,0.498039215803146);
#496=SURFACE_SIDE_STYLE('',(#699));
#497=EDGE_LOOP('',(#700,#701,#702));
#498=AXIS2_PLACEMENT_3D('',#703,#704,#705);
#499=SURFACE_SIDE_STYLE('',(#706));
#500=EDGE_LOOP('',(#707,#708,#709,#710));
#501=AXIS2_PLACEMENT_3D('',#711,#712,#713);
#502=SURFACE_SIDE_STYLE('',(#714));
#503=EDGE_LOOP('',(#715,#716));
#504=AXIS2_PLACEMENT_3D('',#717,#718,#719);
#505=PRE_DEFINED_MARKER('');
#506=COLOUR_RGB('',0.498039215803146,0.498039215803146,0.498039215803146);
#507=SURFACE_SIDE_STYLE('',(#720));
#508=EDGE_LOOP('',(#721,#722,#723,#724));
#509=AXIS2_PLACEMENT_3D('',#725,#726,#727);
#510=DRAUGHTING_PRE_DEFINED_CURVE_FONT('continuous');
#511=COLOUR_RGB('',0.800000011920929,0.800000011920929,0.800000011920929);
#512=CARTESIAN_POINT('',(2.382,2.9170123348049E-016,-69.829602445));
#513=VECTOR('',#728,1.0);
#514=PRE_DEFINED_MARKER('');
#515=COLOUR_RGB('',0.498039215803146,0.498039215803146,0.498039215803146);
#516=PRE_DEFINED_MARKER('');
#517=COLOUR_RGB('',0.498039215803146,0.498039215803146,0.498039215803146);
#518=SURFACE_SIDE_STYLE('',(#729));
#519=EDGE_LOOP('',(#730,#731,#732,#733));
#520=AXIS2_PLACEMENT_3D('',#734,#735,#736);
#521=DRAUGHTING_PRE_DEFINED_CURVE_FONT('continuous');
#522=COLOUR_RGB('',0.498039215803146,0.498039215803146,0.498039215803146);
#523=AXIS2_PLACEMENT_3D('',#737,#738,#739);
#524=DRAUGHTING_PRE_DEFINED_CURVE_FONT('continuous');
#525=COLOUR_RGB('',0.498039215803146,0.498039215803146,0.498039215803146);
#526=CARTESIAN_POINT('',(-2.78340284835684E-016,2.27289597156586,-0.198499999999996));
#527=VECTOR('',#740,1.0);
#528=DRAUGHTING_PRE_DEFINED_CURVE_FONT('continuous');
#529=COLOUR_RGB('',0.498039215803146,0.498039215803146,0.498039215803146);
#530=AXIS2_PLACEMENT_3D('',#741,#742,#743);
#531=DRAUGHTING_PRE_DEFINED_CURVE_FONT('continuous');
#532=COLOUR_RGB('',0.498039215803146,0.498039215803146,0.498039215803146);
#533=CARTESIAN_POINT('',(-2.91640003162799E-016,2.3815,-55.2677631397208));
#534=VECTOR('',#744,1.0);
#535=DRAUGHTING_PRE_DEFINED_CURVE_FONT('continuous');
#536=COLOUR_RGB('',0.800000011920929,0.800000011920929,0.800000011920929);
#537=AXIS2_PLACEMENT_3D('',#745,#746,#747);
#538=DRAUGHTING_PRE_DEFINED_CURVE_FONT('continuous');
#539=COLOUR_RGB('',0.498039215803146,0.498039215803146,0.498039215803146);
#540=AXIS2_PLACEMENT_3D('',#748,#749,#750);
#541=DRAUGHTING_PRE_DEFINED_CURVE_FONT('continuous');
#542=COLOUR_RGB('',0.800000011920929,0.800000011920929,0.800000011920929);
#543=CARTESIAN_POINT('',(-2.382,-2.9170123348049E-016,-69.829602445));
#544=VECTOR('',#751,1.0);
#545=PRE_DEFINED_MARKER('');
#546=COLOUR_RGB('',0.498039215803146,0.498039215803146,0.498039215803146);
#547=DRAUGHTING_PRE_DEFINED_CURVE_FONT('continuous');
#548=COLOUR_RGB('',0.498039215803146,0.498039215803146,0.498039215803146);
#549=AXIS2_PLACEMENT_3D('',#752,#753,#754);
#550=PRE_DEFINED_MARKER('');
#551=COLOUR_RGB('',0.800000011920929,0.800000011920929,0.800000011920929);
#552=SURFACE_SIDE_STYLE('',(#755));
#553=EDGE_LOOP('',(#756,#757,#758,#759));
#554=AXIS2_PLACEMENT_3D('',#760,#761,#762);
#555=SURFACE_SIDE_STYLE('',(#763));
#556=EDGE_LOOP('',(#764,#765,#766,#767));
#557=AXIS2_PLACEMENT_3D('',#768,#769,#770);
#558=DRAUGHTING_PRE_DEFINED_CURVE_FONT('continuous');
#559=COLOUR_RGB('',0.498039215803146,0.498039215803146,0.498039215803146);
#560=CARTESIAN_POINT('',(2.91640003162799E-016,-2.3815,-55.2677631397208));
#561=VECTOR('',#771,1.0);
#562=SURFACE_SIDE_STYLE('',(#772));
#563=EDGE_LOOP('',(#773,#774));
#564=AXIS2_PLACEMENT_3D('',#775,#776,#777);
#565=DRAUGHTING_PRE_DEFINED_CURVE_FONT('continuous');
#566=COLOUR_RGB('',0.800000011920929,0.800000011920929,0.800000011920929);
#567=CARTESIAN_POINT('',(-1.19075,-1.458200015814E-016,-79.566602445));
#568=VECTOR('',#778,1.0);
#569=DRAUGHTING_PRE_DEFINED_CURVE_FONT('continuous');
#570=COLOUR_RGB('',0.498039215803146,0.498039215803146,0.498039215803146);
#571=CARTESIAN_POINT('',(-2.91670618321645E-016,2.38175,-60.5255669872981));
#572=VECTOR('',#779,1.0);
#573=DRAUGHTING_PRE_DEFINED_CURVE_FONT('continuous');
#574=COLOUR_RGB('',0.498039215803146,0.498039215803146,0.498039215803146);
#575=CARTESIAN_POINT('',(2.92007385068946E-016,-2.3845,-50.0051961524227));
#576=VECTOR('',#780,1.0);
#577=DRAUGHTING_PRE_DEFINED_CURVE_FONT('continuous');
#578=COLOUR_RGB('',0.498039215803146,0.498039215803146,0.498039215803146);
#579=AXIS2_PLACEMENT_3D('',#781,#782,#783);
#580=DRAUGHTING_PRE_DEFINED_CURVE_FONT('continuous');
#581=COLOUR_RGB('',0.800000011920929,0.800000011920929,0.800000011920929);
#582=AXIS2_PLACEMENT_3D('',#784,#785,#786);
#583=DRAUGHTING_PRE_DEFINED_CURVE_FONT('continuous');
#584=COLOUR_RGB('',0.498039215803146,0.498039215803146,0.498039215803146);
#585=AXIS2_PLACEMENT_3D('',#787,#788,#789);
#586=DRAUGHTING_PRE_DEFINED_CURVE_FONT('continuous');
#587=COLOUR_RGB('',0.498039215803146,0.498039215803146,0.498039215803146);
#588=CARTESIAN_POINT('',(2.92374766975093E-016,-2.3875,-25.1985));
#589=VECTOR('',#790,1.0);
#590=DRAUGHTING_PRE_DEFINED_CURVE_FONT('continuous');
#591=COLOUR_RGB('',0.498039215803146,0.498039215803146,0.498039215803146);
#592=CARTESIAN_POINT('',(-2.92374766975093E-016,2.3875,-25.1985));
#593=VECTOR('',#791,1.0);
#594=PRE_DEFINED_MARKER('');
#595=COLOUR_RGB('',0.800000011920929,0.800000011920929,0.800000011920929);
#596=DRAUGHTING_PRE_DEFINED_CURVE_FONT('continuous');
#597=COLOUR_RGB('',0.498039215803146,0.498039215803146,0.498039215803146);
#598=CARTESIAN_POINT('',(2.78340284835684E-016,-2.27289597156586,-0.198499999999996));
#599=VECTOR('',#792,1.0);
#601=SURFACE_STYLE_FILL_AREA(#793);
#602=ORIENTED_EDGE('',*,*,#189,.F.);
#603=ORIENTED_EDGE('',*,*,#141,.T.);
#604=ORIENTED_EDGE('',*,*,#207,.F.);
#605=ORIENTED_EDGE('',*,*,#187,.F.);
#606=CARTESIAN_POINT('',(0.0,0.0,-55.2677631397208));
#607=DIRECTION('',(-0.0,-0.0,1.0));
#608=DIRECTION('',(0.0,1.0,0.0));
#609=DIRECTION('',(6.12303176911187E-017,-0.499999999999999,-0.866025403784439));
#610=CARTESIAN_POINT('',(0.0,0.0,-60.526));
#611=DIRECTION('',(0.0,0.0,-1.0));
#612=DIRECTION('',(0.0,1.0,0.0));
#613=SURFACE_STYLE_FILL_AREA(#794);
#614=ORIENTED_EDGE('',*,*,#213,.T.);
#615=ORIENTED_EDGE('',*,*,#153,.F.);
#616=ORIENTED_EDGE('',*,*,#123,.T.);
#617=ORIENTED_EDGE('',*,*,#217,.T.);
#618=CARTESIAN_POINT('',(0.0,0.0,-60.5255669872981));
#619=DIRECTION('',(0.0,-0.0,-1.0));
#620=DIRECTION('',(0.0,1.0,0.0));
#621=SURFACE_STYLE_FILL_AREA(#795);
#622=SURFACE_STYLE_FILL_AREA(#796);
#623=ORIENTED_EDGE('',*,*,#225,.F.);
#624=ORIENTED_EDGE('',*,*,#199,.T.);
#625=ORIENTED_EDGE('',*,*,#223,.F.);
#626=ORIENTED_EDGE('',*,*,#133,.F.);
#627=CARTESIAN_POINT('',(0.0,0.0,-25.1985));
#628=DIRECTION('',(-0.0,-0.0,1.0));
#629=DIRECTION('',(0.0,1.0,0.0));
#630=DIRECTION('',(-6.12303176911458E-017,0.50000000000022,0.866025403784312));
#631=SURFACE_STYLE_FILL_AREA(#797);
#632=ORIENTED_EDGE('',*,*,#115,.T.);
#633=ORIENTED_EDGE('',*,*,#153,.T.);
#634=CARTESIAN_POINT('',(0.0,1.191,-60.526));
#635=DIRECTION('',(0.0,0.0,-1.0));
#636=DIRECTION('',(0.0,1.0,0.0));
#637=CARTESIAN_POINT('',(0.0,0.0,-50.0));
#638=DIRECTION('',(0.0,0.0,-1.0));
#639=DIRECTION('',(0.0,1.0,0.0));
#640=SURFACE_STYLE_FILL_AREA(#798);
#641=ORIENTED_EDGE('',*,*,#135,.T.);
#642=ORIENTED_EDGE('',*,*,#157,.T.);
#643=ORIENTED_EDGE('',*,*,#211,.T.);
#644=CARTESIAN_POINT('',(0.0,0.0,-79.566602445));
#645=DIRECTION('',(-0.0,-0.0,1.0));
#646=DIRECTION('',(-1.0,0.0,0.0));
#647=SURFACE_STYLE_FILL_AREA(#799);
#648=ORIENTED_EDGE('',*,*,#109,.F.);
#649=ORIENTED_EDGE('',*,*,#133,.T.);
#650=ORIENTED_EDGE('',*,*,#215,.F.);
#651=ORIENTED_EDGE('',*,*,#141,.F.);
#652=CARTESIAN_POINT('',(0.0,0.0,-50.0051961524227));
#653=DIRECTION('',(-0.0,-0.0,1.0));
#654=DIRECTION('',(0.0,1.0,0.0));
#655=CARTESIAN_POINT('',(0.0,0.0,-50.0));
#656=DIRECTION('',(0.0,0.0,-1.0));
#657=DIRECTION('',(0.0,1.0,0.0));
#658=DIRECTION('',(0.939692621154303,1.15075355450556E-016,0.342020142313514));
#659=CARTESIAN_POINT('',(0.0,0.0,-50.0103923048454));
#660=DIRECTION('',(0.0,0.0,-1.0));
#661=DIRECTION('',(0.0,1.0,0.0));
#662=CARTESIAN_POINT('',(0.0,0.0,-50.0103923048454));
#663=DIRECTION('',(0.0,0.0,-1.0));
#664=DIRECTION('',(0.0,1.0,0.0));
#665=SURFACE_STYLE_FILL_AREA(#800);
#666=ORIENTED_EDGE('',*,*,#225,.T.);
#667=ORIENTED_EDGE('',*,*,#127,.F.);
#668=ORIENTED_EDGE('',*,*,#223,.T.);
#669=ORIENTED_EDGE('',*,*,#221,.T.);
#670=CARTESIAN_POINT('',(0.0,0.0,-25.1985));
#671=DIRECTION('',(-0.0,-0.0,1.0));
#672=DIRECTION('',(0.0,1.0,0.0));
#673=SURFACE_STYLE_FILL_AREA(#801);
#674=SURFACE_STYLE_FILL_AREA(#802);
#675=ORIENTED_EDGE('',*,*,#213,.F.);
#676=ORIENTED_EDGE('',*,*,#187,.T.);
#677=ORIENTED_EDGE('',*,*,#123,.F.);
#678=ORIENTED_EDGE('',*,*,#115,.F.);
#679=CARTESIAN_POINT('',(0.0,0.0,-60.5255669872981));
#680=DIRECTION('',(0.0,-0.0,-1.0));
#681=DIRECTION('',(0.0,1.0,0.0));
#682=CARTESIAN_POINT('',(0.0,0.0,-79.13320489));
#683=DIRECTION('',(0.0,0.0,-1.0));
#684=DIRECTION('',(-1.0,0.0,0.0));
#685=CARTESIAN_POINT('',(0.0,0.0,-60.526));
#686=DIRECTION('',(0.0,0.0,-1.0));
#687=DIRECTION('',(0.0,1.0,0.0));
#688=SURFACE_STYLE_FILL_AREA(#803);
#689=ORIENTED_EDGE('',*,*,#109,.T.);
#690=ORIENTED_EDGE('',*,*,#137,.F.);
#691=ORIENTED_EDGE('',*,*,#215,.T.);
#692=ORIENTED_EDGE('',*,*,#127,.T.);
#693=CARTESIAN_POINT('',(0.0,0.0,-50.0051961524227));
#694=DIRECTION('',(-0.0,-0.0,1.0));
#695=DIRECTION('',(0.0,1.0,0.0));
#696=CARTESIAN_POINT('',(0.0,0.0,-79.13320489));
#697=DIRECTION('',(0.0,0.0,-1.0));
#698=DIRECTION('',(-1.0,0.0,0.0));
#699=SURFACE_STYLE_FILL_AREA(#804);
#700=ORIENTED_EDGE('',*,*,#135,.F.);
#701=ORIENTED_EDGE('',*,*,#211,.F.);
#702=ORIENTED_EDGE('',*,*,#151,.T.);
#703=CARTESIAN_POINT('',(0.0,0.0,-79.566602445));
#704=DIRECTION('',(-0.0,-0.0,1.0));
#705=DIRECTION('',(-1.0,0.0,0.0));
#706=SURFACE_STYLE_FILL_AREA(#805);
#707=ORIENTED_EDGE('',*,*,#185,.F.);
#708=ORIENTED_EDGE('',*,*,#193,.T.);
#709=ORIENTED_EDGE('',*,*,#229,.F.);
#710=ORIENTED_EDGE('',*,*,#199,.F.);
#711=CARTESIAN_POINT('',(0.0,0.0,-0.198499999999996));
#712=DIRECTION('',(0.0,-0.0,-1.0));
#713=DIRECTION('',(0.0,1.0,0.0));
#714=SURFACE_STYLE_FILL_AREA(#806);
#715=ORIENTED_EDGE('',*,*,#193,.F.);
#716=ORIENTED_EDGE('',*,*,#183,.F.);
#717=CARTESIAN_POINT('',(0.0,1.07914597156586,0.0));
#718=DIRECTION('',(-0.0,0.0,1.0));
#719=DIRECTION('',(0.0,-1.0,0.0));
#720=SURFACE_STYLE_FILL_AREA(#807);
#721=ORIENTED_EDGE('',*,*,#195,.F.);
#722=ORIENTED_EDGE('',*,*,#191,.T.);
#723=ORIENTED_EDGE('',*,*,#175,.F.);
#724=ORIENTED_EDGE('',*,*,#151,.F.);
#725=CARTESIAN_POINT('',(0.0,0.0,-69.829602445));
#726=DIRECTION('',(-0.0,-0.0,1.0));
#727=DIRECTION('',(-1.0,0.0,0.0));
#728=DIRECTION('',(5.37426230574363E-005,6.58135576672175E-021,0.999999998555865));
#729=SURFACE_STYLE_FILL_AREA(#808);
#730=ORIENTED_EDGE('',*,*,#185,.T.);
#731=ORIENTED_EDGE('',*,*,#221,.F.);
#732=ORIENTED_EDGE('',*,*,#229,.T.);
#733=ORIENTED_EDGE('',*,*,#183,.T.);
#734=CARTESIAN_POINT('',(0.0,0.0,-0.198499999999996));
#735=DIRECTION('',(0.0,-0.0,-1.0));
#736=DIRECTION('',(0.0,1.0,0.0));
#737=CARTESIAN_POINT('',(0.0,0.0,0.0));
#738=DIRECTION('',(0.0,0.0,-1.0));
#739=DIRECTION('',(0.0,1.0,0.0));
#740=DIRECTION('',(-6.12303176911191E-017,0.500000000000002,-0.866025403784438));
#741=CARTESIAN_POINT('',(0.0,0.0,-60.5251339745962));
#742=DIRECTION('',(0.0,0.0,-1.0));
#743=DIRECTION('',(0.0,1.0,0.0));
#744=DIRECTION('',(0.0,0.0,-1.0));
#745=CARTESIAN_POINT('',(0.0,0.0,-60.526));
#746=DIRECTION('',(0.0,0.0,-1.0));
#747=DIRECTION('',(-1.0,0.0,0.0));
#748=CARTESIAN_POINT('',(0.0,0.0,0.0));
#749=DIRECTION('',(0.0,0.0,-1.0));
#750=DIRECTION('',(0.0,1.0,0.0));
#751=DIRECTION('',(5.37426230574363E-005,6.58135576672174E-021,-0.999999998555865));
#752=CARTESIAN_POINT('',(0.0,0.0,-0.396999999999998));
#753=DIRECTION('',(0.0,0.0,-1.0));
#754=DIRECTION('',(0.0,1.0,0.0));
#755=SURFACE_STYLE_FILL_AREA(#809);
#756=ORIENTED_EDGE('',*,*,#189,.T.);
#757=ORIENTED_EDGE('',*,*,#217,.F.);
#758=ORIENTED_EDGE('',*,*,#207,.T.);
#759=ORIENTED_EDGE('',*,*,#137,.T.);
#760=CARTESIAN_POINT('',(0.0,0.0,-55.2677631397208));
#761=DIRECTION('',(-0.0,-0.0,1.0));
#762=DIRECTION('',(0.0,1.0,0.0));
#763=SURFACE_STYLE_FILL_AREA(#810);
#764=ORIENTED_EDGE('',*,*,#195,.T.);
#765=ORIENTED_EDGE('',*,*,#157,.F.);
#766=ORIENTED_EDGE('',*,*,#175,.T.);
#767=ORIENTED_EDGE('',*,*,#219,.T.);
#768=CARTESIAN_POINT('',(0.0,0.0,-69.829602445));
#769=DIRECTION('',(-0.0,-0.0,1.0));
#770=DIRECTION('',(-1.0,0.0,0.0));
#771=DIRECTION('',(-0.0,-0.0,1.0));
#772=SURFACE_STYLE_FILL_AREA(#811);
#773=ORIENTED_EDGE('',*,*,#191,.F.);
#774=ORIENTED_EDGE('',*,*,#219,.F.);
#775=CARTESIAN_POINT('',(-1.19125,0.0,-60.526));
#776=DIRECTION('',(0.0,0.0,1.0));
#777=DIRECTION('',(1.0,0.0,0.0));
#778=DIRECTION('',(0.939692621154303,1.15075355450556E-016,-0.342020142313514));
#779=DIRECTION('',(-6.12303176911458E-017,0.50000000000022,-0.866025403784312));
#780=DIRECTION('',(6.12303176911187E-017,-0.499999999999999,0.866025403784439));
#781=CARTESIAN_POINT('',(0.0,0.0,-60.5251339745962));
#782=DIRECTION('',(0.0,0.0,-1.0));
#783=DIRECTION('',(0.0,1.0,0.0));
#784=CARTESIAN_POINT('',(0.0,0.0,-60.526));
#785=DIRECTION('',(0.0,0.0,-1.0));
#786=DIRECTION('',(-1.0,0.0,0.0));
#787=CARTESIAN_POINT('',(0.0,0.0,-0.396999999999998));
#788=DIRECTION('',(0.0,0.0,-1.0));
#789=DIRECTION('',(0.0,1.0,0.0));
#790=DIRECTION('',(-0.0,-0.0,1.0));
#791=DIRECTION('',(0.0,0.0,-1.0));
#792=DIRECTION('',(-6.12303176911191E-017,0.500000000000002,0.866025403784438));
#793=FILL_AREA_STYLE('',(#812));
#794=FILL_AREA_STYLE('',(#813));
#795=FILL_AREA_STYLE('',(#814));
#796=FILL_AREA_STYLE('',(#815));
#797=FILL_AREA_STYLE('',(#816));
#798=FILL_AREA_STYLE('',(#817));
#799=FILL_AREA_STYLE('',(#818));
#800=FILL_AREA_STYLE('',(#819));
#801=FILL_AREA_STYLE('',(#820));
#802=FILL_AREA_STYLE('',(#821));
#803=FILL_AREA_STYLE('',(#822));
#804=FILL_AREA_STYLE('',(#823));
#805=FILL_AREA_STYLE('',(#824));
#806=FILL_AREA_STYLE('',(#825));
#807=FILL_AREA_STYLE('',(#826));
#808=FILL_AREA_STYLE('',(#827));
#809=FILL_AREA_STYLE('',(#828));
#810=FILL_AREA_STYLE('',(#829));
#811=FILL_AREA_STYLE('',(#830));
#812=FILL_AREA_STYLE_COLOUR('',#831);
#813=FILL_AREA_STYLE_COLOUR('',#832);
#814=FILL_AREA_STYLE_COLOUR('',#833);
#815=FILL_AREA_STYLE_COLOUR('',#834);
#816=FILL_AREA_STYLE_COLOUR('',#835);
#817=FILL_AREA_STYLE_COLOUR('',#836);
#818=FILL_AREA_STYLE_COLOUR('',#837);
#819=FILL_AREA_STYLE_COLOUR('',#838);
#820=FILL_AREA_STYLE_COLOUR('',#839);
#821=FILL_AREA_STYLE_COLOUR('',#840);
#822=FILL_AREA_STYLE_COLOUR('',#841);
#823=FILL_AREA_STYLE_COLOUR('',#842);
#824=FILL_AREA_STYLE_COLOUR('',#843);
#825=FILL_AREA_STYLE_COLOUR('',#844);
#826=FILL_AREA_STYLE_COLOUR('',#845);
#827=FILL_AREA_STYLE_COLOUR('',#846);
#828=FILL_AREA_STYLE_COLOUR('',#847);
#829=FILL_AREA_STYLE_COLOUR('',#848);
#830=FILL_AREA_STYLE_COLOUR('',#849);
#831=COLOUR_RGB('',0.498039215803146,0.498039215803146,0.498039215803146);
#832=COLOUR_RGB('',0.498039215803146,0.498039215803146,0.498039215803146);
#833=COLOUR_RGB('',0.800000011920929,0.800000011920929,0.800000011920929);
#834=COLOUR_RGB('',0.498039215803146,0.498039215803146,0.498039215803146);
#835=COLOUR_RGB('',0.498039215803146,0.498039215803146,0.498039215803146);
#836=COLOUR_RGB('',0.800000011920929,0.800000011920929,0.800000011920929);
#837=COLOUR_RGB('',0.498039215803146,0.498039215803146,0.498039215803146);
#838=COLOUR_RGB('',0.498039215803146,0.498039215803146,0.498039215803146);
#839=COLOUR_RGB('',0.498039215803146,0.498039215803146,0.498039215803146);
#840=COLOUR_RGB('',0.498039215803146,0.498039215803146,0.498039215803146);
#841=COLOUR_RGB('',0.498039215803146,0.498039215803146,0.498039215803146);
#842=COLOUR_RGB('',0.800000011920929,0.800000011920929,0.800000011920929);
#843=COLOUR_RGB('',0.498039215803146,0.498039215803146,0.498039215803146);
#844=COLOUR_RGB('',0.498039215803146,0.498039215803146,0.498039215803146);
#845=COLOUR_RGB('',0.800000011920929,0.800000011920929,0.800000011920929);
#846=COLOUR_RGB('',0.498039215803146,0.498039215803146,0.498039215803146);
#847=COLOUR_RGB('',0.498039215803146,0.498039215803146,0.498039215803146);
#848=COLOUR_RGB('',0.800000011920929,0.800000011920929,0.800000011920929);
#849=COLOUR_RGB('',0.800000011920929,0.800000011920929,0.800000011920929);
#850=AXIS2_PLACEMENT_3D('PCS',#851,#852,#853);
#851=CARTESIAN_POINT('',(0.0,0.0,0.0));
#852=DIRECTION('',(0.0,0.0,1.0));
#853=DIRECTION('',(1.0,0.0,0.0));
#854=AXIS2_PLACEMENT_3D('CIP',#855,#856,#857);
#855=CARTESIAN_POINT('',(0.0,0.0,-80.0));
#856=DIRECTION('',(0.0,0.0,1.0));
#857=DIRECTION('',(1.0,0.0,0.0));
#858=AXIS2_PLACEMENT_3D('CRP',#859,#860,#861);
#859=CARTESIAN_POINT('',(-2.3815,0.0,-79.13320489));
#860=DIRECTION('',(0.0,0.0,1.0));
#861=DIRECTION('',(1.0,0.0,0.0));
#862=AXIS2_PLACEMENT_3D('MCS',#863,#864,#865);
#863=CARTESIAN_POINT('',(0.0,0.0,-50.0));
#864=DIRECTION('',(0.0,0.0,1.0));
#865=DIRECTION('',(1.0,0.0,0.0));
#866=CONSTRUCTIVE_GEOMETRY_REPRESENTATION_RELATIONSHIP('coordinate systems',$,#84,#867);
#867=CONSTRUCTIVE_GEOMETRY_REPRESENTATION('coordinate systems',(#850,#854,#858,#862),#10);
ENDSEC;
END-ISO-10303-21;
